<?xml version="1.0" encoding="UTF-8"?>
<svg id="Layer_2" data-name="Layer 2" xmlns="http://www.w3.org/2000/svg" viewBox="0 0 247.56 45.3">
  <defs>
    <style>
      .cls-1 {
        fill: #fff;
      }

      .cls-2 {
        fill: #82858a;
      }
    </style>
  </defs>
  <g id="Nav_style_2" data-name="Nav style 2">
    <g>
      <polygon class="cls-1" points="133.68 7.48 133.68 37.43 128.77 37.43 114.01 15.09 114.01 37.43 109.1 37.43 109.1 7.48 114.01 7.48 128.77 29.77 128.77 7.48 133.68 7.48"/>
      <path class="cls-1" d="M149.56,37.82c-6.76,0-11.88-4.82-11.88-12.27s5.34-12.22,12.09-12.22,12.1,4.78,12.1,12.22-5.51,12.27-12.31,12.27M149.56,33.56c3.66,0,7.27-2.63,7.27-8s-3.49-7.96-7.15-7.96-7.02,2.58-7.02,7.96,3.18,8,6.89,8"/>
      <path class="cls-1" d="M170.78,37.43h-4.91V13.72h4.91v3.44c1.38-2.37,3.74-3.83,7.1-3.83v4.39h-1.25c-3.62,0-5.85,2.2-5.85,7.23v12.48Z"/>
      <path class="cls-1" d="M184.03,17.72h-2.8v-4h2.8v-5.89h4.95v5.89h5.77v4h-5.77v13.13c0,1.77.69,2.5,2.75,2.5h3.01v4.09h-3.87c-4.22,0-6.85-1.76-6.85-6.58v-13.13Z"/>
      <path class="cls-1" d="M209.55,37.82c-6.76,0-11.88-4.82-11.88-12.27s5.34-12.22,12.09-12.22,12.1,4.78,12.1,12.22-5.51,12.27-12.31,12.27M209.55,33.56c3.66,0,7.28-2.63,7.28-8s-3.49-7.96-7.14-7.96-7.02,2.58-7.02,7.96,3.18,8,6.88,8"/>
      <path class="cls-1" d="M242.7,24.18c0-4.35-2.37-6.59-5.94-6.59s-5.98,2.24-5.98,6.59v13.26h-4.91V13.72h4.91v2.71c1.59-1.93,4.22-3.1,7.06-3.1,5.55,0,9.73,3.49,9.73,10.11v13.99h-4.87v-13.26Z"/>
      <path class="cls-2" d="M78.5,0c-4.01,0-7.73,2.06-9.87,5.46l-10.87,17.34L52.41,0h-17.56c-4.01,0-7.74,2.06-9.87,5.46L0,45.3h18.97c4.01,0,7.74-2.06,9.87-5.46l8.32-13.21.02.09,2.25,9.59c1.24,5.26,5.93,8.98,11.34,8.98h11.86c4.01,0,7.74-2.06,9.87-5.46L97.47,0h-18.97ZM26.22,38.19h0c-1.56,2.49-4.3,4.01-7.25,4.01H5.59L27.6,7.1c.99-1.59,2.47-2.78,4.17-3.44l4.41,18.76-9.95,15.77ZM49.5,42.08c-1.27-.13-2.99-1.05-2.99-1.05-2-1.15-3.51-3.07-4.06-5.43L34.81,3.09h15.13l9.2,39.11s-9.22-.05-9.64-.12M69.88,38.19c-1.56,2.49-4.3,4.01-7.25,4.01h-.31l-3.54-15.05,12.47-20.05c1.56-2.49,4.3-4.01,7.25-4.01h13.39l-22.01,35.1Z"/>
    </g>
  </g>
</svg>